<svg xmlns="http://www.w3.org/2000/svg" width="512" height="405" fill="none" viewBox="0 0 512 405"><path fill="#f30004" d="M0 0v404.7l8.2-4.1a9 9 0 0 1-2.7-3.3c-1-1.7-2-7.5 1.1-4.9l5.2 4.4 1.4 1.3 3.6-1.8q-.2-.3.3-.6l1.3-.2 3-1.5q-1-.3-1.7-.9-.8-.9.6-1c.8-.3 2.4.4 2.6 1l7.3-3.5c-.9-.3-3.1-1.3-1.2-1.7h2.3l1.3.5 5.7-2.8q0-1.3 1-2l.2-.1q.8 0 1 1l2.9-1.5-.2-1.2c-.1-1.9.2-2 1.8-1.3l1.4 1 4.3-2q-1-1-1.1-2.4c-.2-2.9 1.4-3 2.6-1.3l1.6 2 5.4-2.7a2 2 0 0 1-.4-1.4c.1-1.5 2.3-3.6 3.2-3.3 1 .5 1 1.8.6 3l17.6-8.8q0-.2.3-.5.4-.3 1-.1l22.5-11.3q0-.6.4-1 .8-1 1.4-.5l.2.5 52.7-26.4q-.7-.2-1-.6-.6-.6.1-1l1.4-.1q.9.3 1.3.8l33.5-16.7q.6-1.3 1.3-1l.1.3 44.8-22.4q-.1-.3.4-.5.3-.2 1-.2l3.3-1.7q0-.7.2-1.2.3-.8.9-.5l.7.8 35.8-17.8a3 3 0 0 1-2-.8q-.6-.5 0-.9a3 3 0 0 1 1.6-.2q1.5.4 1.7 1.2l73.3-36.6-.1-.1q-.7-.7 0-1a3 3 0 0 1 1.6-.2l.6.2 45.5-22.7zm366 186.6c.3-1 1.2-2 1.6-1 .5.7.3 2-.4 2.6h-.1c-.9.7-1.2-1-1-1.6m-6 3.4q.5-.3 1.4-.2c1 .2 1.9 1.1 1.1 1.6h-.1c-.8.4-2 .1-2.6-.6q-.5-.5.2-.8m-2.2 7.9c1-4 7-2 5.3 1.7v.2c-1.4 3.2-6.2 1.2-5.3-2m-4.4-5c.9-.6 3-.5 3 1h-.1c-.5 1-1.8 2-2.9 2.1-1.5 0-1.3-2.4 0-3m-2.2 19.7c1.3-1.2 3.6-1 4.8.1q.8.6.3 1h-.1a6 6 0 0 1-3.4 1.1c-1.8 0-2.7-1.2-1.6-2.3m-1.6 9.2a3 3 0 0 1 1.6-.2c1.2.2 2.3 1.1 1.5 1.6h-.2a3 3 0 0 1-3-.5q-.6-.6 0-1zm-3.1-18.4q.3.5-.1.8h-.2q-.4.4-1.2.3c-.8 0-2.2-1.4-1.3-2s2.2.1 2.8.9m-5.2-11.2q1.3-.7 2.5.1c.5.4 1.2 1 .7 1.5h-.1c-.8.6-2.2.6-2.9 0q-1-.9-.2-1.6M329.5 181q.8-1.3 1.2-.7c.5 1 .6 2.5-.1 3.3h-.1c-1.2.7-1.4-1.9-1-2.7m-2.8 36.4a3 3 0 0 1 1.6-.2c1.1.2 2.2 1.1 1.4 1.6h-.1a3 3 0 0 1-3-.5q-.6-.6 0-1m-6.1-21.1q1.2-.6 2.6.3 1.1.8.6 1.2h-.1c-.9.5-2.4.2-3-.5q-.6-.5-.1-1m-6.3 3c.7-.5 1.9-.4 2.7 0q1.1.7.6 1.1l-.1.1c-.9.5-2.4.4-3.2-.2q-.5-.5 0-1m-.9 23.6c.4-1.3 1.2-2.5 1.5-2 .8 1.3.3 3.6-.6 4.7h-.1q-.6.6-.8-.5zm-19.8-30.2c.2-1.1 1.1-2 1.5-1.1.5.8.3 2-.4 2.6v.1c-1 .6-1.3-1-1.1-1.6M247 268.2c-1 .5-2.4.2-3.1-.6q-.6-.4-.1-1 1.4-.5 2.7.4 1 .8.5 1.2m1.7-8.1c-.8 2.5-4.9 4.4-7.2 3.2q-1.2-.7-.6-2c.7-1.6 2.6-2.2 4.3-2.4 1.3-.1 3.6-.4 3.6 1zm2.2 7-.1.2q-.6.3-.9-.8-.5-1.7.7-2.8.6-.3.8.4a3 3 0 0 1-.5 3m23.9-77.7q.6-.3.8.5a3 3 0 0 1-.5 3l-.1.1q-.5.3-.8-.7-.5-1.7.6-2.9m-7.5 18.3c1-.5 2.5 2.4 1.8 3.2-.5 1-1.8.7-2.4-.1l-.1-.2c-.8-1-.3-2.4.7-3m-19 6.5q.7-.3 1.4-.2c1 .2 2 1.1 1.2 1.6h-.1c-.8.5-2 .2-2.6-.5q-.5-.6.1-1m-3.2 13.3c1.5-1.4 8-.1 7.7 2.3l-.1.1c-1.5 3-8.2-.1-7.6-2.4m-4.4 12.3c.2-1 1-1.8 1.4-1.6.9.9.6 2.7-.3 3.5-1 .6-1.2-1.2-1-1.9m-44 56.6c-.5-1.1 1.9-2.4 3.6-2.5s5.2 1.7 3.3 3.6h-.1c-1.9 1.2-5.3.5-6.8-1m4-9.3c-.4-1 2.5-3 3.3-2 1.4 1.8-2 3.7-3.3 2m4.2 14.7-.1.1a3 3 0 0 1-3-.6q-.6-.5 0-.9a3 3 0 0 1 1.7-.2c1.1.3 2.2 1.2 1.4 1.6m.3-23.7-.2.1c-.8.4-2 .1-2.6-.6q-.4-.5.2-.9.6-.3 1.4-.2c1 .3 2 1.2 1.2 1.6m31.8-3c1-.4 3.6.5 2.4 1.6h-.2c-1 .9-5-1.2-2.2-1.7m-3-10.8-.2.2a3 3 0 0 1-1.9 1c-1.5.1-2-2-1-3 1.3-1.5 4.2 0 3 1.8m-6-6.4a3 3 0 0 1 1.7-.2c1.1.2 2.2 1.1 1.4 1.6h-.1a3 3 0 0 1-3-.5q-.6-.6 0-1m-4.7-60.9c.2-1 1-1.9 1.3-1.6.9.9.6 2.7-.2 3.4l-.1.1c-1 .6-1.1-1.2-1-1.9m-4.9 21c1-.2 3.4.8 2.5 1.9h-.2c-.8.8-5-1.9-2.3-2m-2.1 39.4c1.4.2 1.4 2 .3 2.8h-.2c-1.3 1-3.2.7-4.3-.2-1.9-1.4 3-3 4.2-2.6m-4.3-40.5q.6-.3.8.4a3 3 0 0 1-.5 3l-.1.1q-.5.4-.9-.7-.5-1.7.7-2.8m-3.8 48.5c.2-1 1-1.8 1.4-1.6.9.9.6 2.7-.2 3.5h-.2c-.9.6-1-1.1-1-1.9m-1.8-65.8c.6 1.1 0 3-.8 3.8h-.2c-.9.4-.8-1.7-.6-2.3.3-1.2 1.3-2.2 1.6-1.5m-3.2-12.2c1 .3 2.3 1 1.7 1.3l-.2.1c-1 .4-2.5 0-3.2-.8-.5-.4.6-.7 1.7-.6m-3.6 45.3c1 .2 2.4 2.3 1.6 3.1l-.1.1q-1.2.6-2.2-.5c-.9-1-.6-2.8.7-2.7m-.3 56.2c-1 .4-2.3.2-3-.5q-.6-.6 0-1a3 3 0 0 1 1.6-.2c1.2.3 2.3 1.2 1.5 1.7m-3.7-71.5c.2-1 1-1.9 1.4-1.6.8.8.5 2.6-.3 3.4l-.1.1c-1 .6-1.1-1.2-1-2m-4.7 84.5c.8-.2 5 .6 3.7 1.7a6 6 0 0 1-5.2-.9q-.4-.6 1.5-.7m-3.6 2c.8-1.1 1.4-.2 1.4.8q-.2 1.3-1 2.2h-.2q-.6.4-.8-.7-.2-1.4.6-2.4M178 309c.2-1 1-1.9 1.4-1.6.8.9.5 2.6-.3 3.4l-.1.1c-1 .6-1.1-1.2-1-2m-1.8 6.7-.1.2c-1.8 1.5-4.2-1.2-2.2-2.7 1.6-1.7 4.2 1.1 2.3 2.5m-.7-16.8c.7 1 .3 2.8.1 4v.3c-.5 2-3.3 4.3-4.3 1.5-.6-2.4 2-6.3 4.1-5.8m-6-10-.1.2c-1 .5-1.1-1.2-1-2s1-1.8 1.4-1.5c.8.8.5 2.6-.3 3.4m.2-10.2c-.2 1.4-2.4 1.4-3 .4l-.2-.2c-.7-1-.5-2.7.6-3 1-.3 2.7 1.7 2.6 2.8m-4-91c.1-1 .9-1.8 1.3-1.5.8.8.5 2.6-.3 3.4h-.1c-1 .6-1.1-1.1-1-1.9m-1.5 80q.7-1 1.2-.4c.7 1 .9 2.5 0 3.3h-.1c-1.5 1-2-2.2-1-3zM0 325.4l.4.3q.5.6-.4 1.2zm0 4.3c1.3-2 3.1-3.6 5.3-2.7 1.3.7 2.6 2.4 1.5 3.8v.1a14 14 0 0 1-6.8 4.7zm4.3-5c-1.6.7-4.1-3.6-1.4-3.7 2-.3 3.2 2.6 1.5 3.7M3 307.5c.8-.3 2 0 2.5.9q.3.5-.2.8l-.1.1c-.9.6-4-1.2-2.2-1.8M7 341l-.2.1c-1 .8-2.8.2-2.8-1 0-1 2-2.4 3-2.2 1.3.4 1.1 2.5 0 3.1m-7-2.6q.4-1 1-1.7h.1q.5-.3.8.5c.3 1.3-.3 4-1.1 5q-.5.5-.8.2zm0 8.7.8-.3c2.5-.4 1.5 4.2.3 5.1l-.2.1q-.4.3-.9.2zm0 10.8q.9.1 2.3 1.9l.2.2c1.3 1.7 2 5.3-.6 5.8q-1.1-.1-1.9-2.4zm0 22c2 1 4 2.5 3.6 4q-1.3.6-3.6.5zm3.7 21v.1c-.7.8-2.2 0-3.7-1v-13q1.3 0 2.2 1.4c2.2 2.7 1.6 7.3 1.8 10.3q0 1.2-.3 2.3m1.4-29-2.8.5H0v-3.7a13 13 0 0 1 5-.1h.2q2 .5 2.6 2c.2.9-.8.8-2.7 1.3m2.5-24.5-.2.1c-.9.6-1-1.2-1-2 .2-.9 1-1.8 1.4-1.5.9.8.6 2.6-.2 3.4m5.6 34.3H13c-.8.5-2.3.5-3-.2q-.6-.5-.2-1c.8-.5 2-.4 2.7 0q1.1.7.6 1.1m1.1-17.3c-1 .6-1.1-1.1-1-1.9.2-1 1-1.8 1.4-1.5.8.8.5 2.6-.3 3.4m-1.8-16.6c-.7-2.3 0-5.5 2.5-6.2.9 0 1.2.8 1.7 2q1 2.8 1.5 6.2v.2l.2 2.7q0 .5-.3.8c-2.1 0-4.8-2.8-5.6-5.8m18.1-21.5q1.2.4 1 1.6l-.2.1c-1.2 2-4.7 2.5-3.5-.7.5-.8 1.7-1.4 2.7-1m-.7-15.9q.6-.2.7.5c.4 1 .3 2.5-.5 3.3l-.1.1q-.9.6-1-1c-.2-1 .1-2.3.8-2.9m-1.1 30.9-.2.1c-1 .7-2.8.2-2.8-1 0-1 2-2.4 3-2.2 1.2.4 1.1 2.5 0 3.1m-.4-6.4-.3.3c-1.7.6-4.3 0-5.5-1.1v-.1c-.7-1.2 5.1-.7 5.8.9M24 318.3q-.5-1.7.6-2.8.6-.3.9.4a3 3 0 0 1-.6 3v.1q-.6.4-1-.7zm2-5c-1 .7-3-.1-2.8-1.4.1-1 2.1-2.1 3-1.9 1.2.5 1 2.6 0 3.2m-2.4 9.6c1 .8.5 3.2-.3 4h-.1c-.6.4-1-.5-1-1-.3-1.3.8-3.2 1.4-3m-1.1 24.5q.8-.7 2.4-1.1h.3c1.1-.3 5.7-1 4.5.6-1.3 1.5-3.8 1.8-5.7 1.7-1.2 0-2.8 0-1.5-1.2m4.8 10-.1.2q-.5.3-.7-.6a7 7 0 0 1 0-2.4c.3-1.6 1.2-3.2 1.6-2.9.9 1.6.1 4.5-.8 5.8m-1.7 10.3q0 .4-.2.7c-1.5.8-4 0-4.8-1.4q-.7-1.2.4-1.8c1.6-.6 4 1.5 4.6 2.5m-4 6.5c-2-.4.6-3.3 2-3.4.9 0 2 0 1.3 1.3v.2c-.7 1-2 2-3.3 1.8m.3 3.2v.1c-1.3 2-4.8 2.5-3.6-.7.5-.8 1.7-1.4 2.7-1q1.2.5.9 1.6m-5.6-38.2c-1.7-.6-4.3-3.3-3.6-4.7 1.8-1.7 8.4-1 9 1.7 0 2.6-3.3 3.7-5.4 3m5 50.3-.2.1c-.9.6-1-1.2-1-2 .3-.9 1-1.8 1.4-1.5.9.8.6 2.6-.2 3.4m1.4-5.7a6 6 0 0 1-3.7-.3c-.7-.2-3.1-1.3-1.2-1.6h2.4c1.7.5 3.5 1.4 2.5 1.9m4.9-5h-.1c-.8.6-4-.6-3.3-1.8q.8-.6 2.3.2t1 1.5m-.2-15.4c.8-.3 2 0 2.5.8.3.4.6.8 0 1.2-1.3 1-5-1-2.5-2m2.8 21.7h-.1c-1 .6-1.1-1.2-1-1.9.2-1 1-1.8 1.4-1.6.8.9.5 2.7-.3 3.5m4.7-12.8-.1.2c-.6.9-2.2 2-3.4 1.3-.6-.3-1.1-1.8-.3-2.6q1.1-1.1 2.6-.6c.7.3 1.6 1 1.2 1.7m-.2-65c1 .8.7 2.7-.2 3.5v.1c-.8.4-1.2-.5-1.4-1.1-.4-1.3.8-3 1.6-2.5m-.1-3.3a3 3 0 0 1 1.6-.2c1.2.3 2.2 1.2 1.5 1.6l-.2.1c-.9.4-2.2.1-3-.6q-.6-.5 0-.9m.7 64.4-.1.1c-1 .6-1.1-1.2-1-1.9.2-1 1-1.9 1.3-1.6.9.9.6 2.7-.2 3.4m4.3-13h-.2c-3.9 1.5-8.7-3-4-6.3 1.8-1.1 4-1.1 4.8.1 1.2 1.7 1 5-.6 6.2m17 17-.1.1c-2.5 1.2-3-6.9-2.2-8.2.7-1.7 2.3-1.5 2.8.5.7 2.1.7 6-.5 7.7m4-10.4c-2-.4-5-4.4-4.2-6.5.3-.7 1.2-.2 1.7.2 1.6 1.1 3.7 4.4 2.6 6.3M56 351c-.1-2.4 4.7-5.8 7.2-4.5 2.8 1.2 3.1 6 1.5 8v.2c-2.7 2.6-7.7-.8-8.7-3.7m1.7-21c1.2-.2 3.3 2.7 2.2 3.7h-.1c-2 1.2-4.4-2.7-2.2-3.7m-.2-74c.2-1 1-1.9 1.4-1.6.8.9.5 2.7-.3 3.4l-.1.1c-1 .6-1.1-1.2-1-1.9m-.4 87.9q.7-.3 1.4-.2c1 .2 2 1.1 1.2 1.6h-.2c-.8.5-2 .2-2.6-.5q-.4-.6.2-1m10.5-7.1q.7-1 1.3-.8c1 .4 2.6 2.9 1.7 3.7-1.8 1-4-1.3-3-2.9m3.7 12.6H71a3 3 0 0 1-3-.5q-.5-.6 0-1a3 3 0 0 1 1.7-.1c1.2.2 2.2 1.1 1.5 1.6m-1.5-34h-.2c-1 .9-5.1-.7-2.3-1.5 1-.4 3.5.4 2.4 1.5m-2.2 16.5c1.3.3 1.2 2.4.1 3l-.2.2c-1 .7-2.8.2-2.8-1 0-1 2-2.4 3-2.2zM64.9 370q-.4.3-1-.5-.7-1.4-1.2-3c-.5-1.8.4-2.8 1.8-2 1.7 1 1.8 4.1.4 5.5m3.1-14.6c1.3.3 2.4 1 1.8 1.3-1.2.4-3 0-4-.8-.2-.5 1-.7 2.2-.5m3.2 12.4c-1.9 1-3.5-2-2.8-3.4q.5-1.2 1.3-.7c1 .6 2.6 3.2 1.6 4m7.6-9v.2c-1.2 1.6-4.5 1.9-6.4 1.3-1.3-.3-1.3-2.2-.5-3.5 1.6-3.5 8.1-2 7 2m.2-10.8-.1.2c-1 1.7-3.7 3.1-5 1.3-1.3-2 .2-4 2.4-4.3 2.4-.5 3.7.6 2.7 2.8m.7-56.4-.2.2c-1 .8-2.4.3-2.8-.8-.4-1 2.7-3 3.5-2.2s.3 2.2-.5 2.9m8.7 66.1c-.8 1.5-3.2 1.9-4.5.8-1.5-1.6 2-5.5 3.7-5.1.8.3 1.9 2.8.8 4.3M84 325.3a3 3 0 0 1 1.6-.2c1.1.3 2.2 1.2 1.4 1.6l-.1.1c-.9.4-2.2.1-3-.6q-.6-.5 0-.9m8-1.8-.2.1c-1.5.8-4-3.2-2.1-3.8s4 2.4 2.2 3.7m1-7c-2.5.7-4.8-2.7-4.4-5 .7-3.9 6.5 3.3 4.5 5m3.8 20.1c-.9.4-1-1.3-.8-1.9.4-1 1.3-1.6 1.6-1 .6.9.1 2.2-.7 2.8zm13.7 12.5c-1 .6-1.2-1.1-1-1.9.1-1 .9-1.8 1.3-1.6.9.9.6 2.7-.3 3.5m19.3-28.2-.1.1c-1 .6-1.2-1-1.1-1.7.3-1 1.2-2 1.6-1 .4.8.2 2-.4 2.6m.1-16.3c0-1 3.5-5.4 4-3 .4 1.3 0 3.1-1.3 4h-.2c-1.1.8-2.8.5-2.5-1m4.4 8.5c.6-.9.9 0 .9.6 0 1.3-.3 3.5-1.2 4.4v.1c-.6.4-.9-1.4-.5-3.1q.3-1.3.8-2m1.3 11-.2.1a3 3 0 0 1-3-.5q-.5-.6 0-1a3 3 0 0 1 1.7-.2c1.2.3 2.2 1.2 1.5 1.7m23.1-109.8c.3-1 1.2-2 1.6-1 .4.8.3 2-.4 2.6h-.1c-.9.7-1.2-1-1-1.6m-3 47.8c.3-1.1 2.5-1 3 0 .7.9.6 2.3-.2 3-1.2.5-3-2-2.8-3m-6 48.9v.1c-.7.6-1.4 0-1.5-.7-.4-1 .6-3.1 1.6-2.7.8.9 1 2.5 0 3.3m-2-29.6c.2-1 1-1.9 1.4-1.6.9.9.6 2.6-.2 3.4l-.2.1c-.9.6-1-1.2-1-2m-1.4 7.8c.2-1 1-1.9 1.3-1.6.9.9.6 2.6-.2 3.4l-.2.1c-.9.6-1-1.2-1-2m-5.3-2.4c1.7-1.6 4.3 2 3 3.5h-.1c-1 .7-3.5-2.5-2.9-3.5m-2.8-31.3-.2.1q-.6.3-.7-.8-.3-1.2.5-2.3c.9-1 1.5-.1 1.4.8 0 .8-.5 1.8-1 2.2m-2.7-33.4q1.2-.5 2.6.3 1.1.8.6 1.2l-.1.1a3 3 0 0 1-3-.6q-.7-.5-.1-1m1.2 72.6c-1.7 1-4-1.4-3-3 1.3-2.3 4.2 1.9 3 3m-2.7-22.8c-.5 1.1-3.5.7-4.1-.4-.4-2 4.3-1 4.1.4m-6.2-22.5c.6-.7 1.7-1.3 2-.4q.8 1.7-.5 2.8l-.2.1c-1.6 1-2.6-1.4-1.3-2.5m-2.4 51.9q.7.6.1 1l-.1.2c-.8.4-1.9.1-2.5-.4-1.4-1.2 2-1.7 2.5-.9m-3.8 36.8q.7-.5 1.3 0c1 1 1.5 2.7.9 4l-.1.1c-.6 1.2-2.8 1.8-3.3.2-.4-1.2.2-3.7 1.2-4.4M119 215.4q.6-1.3 1.1-.7c.6 1 .6 2.5-.1 3.3h-.2c-1.2.7-1.3-1.8-.8-2.6m-3.4 86.2v.1c-1.2.6-2.6-1.4-2.5-2.4 1.2-2.3 4.5.4 2.6 2.3M111 185.4c.7-.2 1.9-.1 2.7.3q1.4.6.8 1.1l-.1.1c-1 .5-2.4.3-3.3-.3-.6-.3-.7-1 0-1.2M109.2 286c.2-1 1-1.9 1.4-1.6.8.9.5 2.7-.3 3.4l-.1.1c-1 .6-1.1-1.2-1-2m.2 20.5a3 3 0 0 1 1.6-.2c1.1.3 2.2 1.2 1.4 1.7h-.1c-.9.4-2.3.2-3-.6q-.6-.5 0-.9m-1.4 9.9v.2c.7 1.3 1.1 3.7.3 5-1.2.2-5.4-4-4.7-5.6 1.1-1.4 3.5-1.4 4.4.4m-4.4-94.1q.7-.3 2-.2c1.2.3 2.4 1.1 1.6 1.6l-.1.1c-1 .4-2.5.2-3.4-.5q-.7-.7 0-1m.1 41c1.8-.6 3.6 2.8 2.8 4.2-1 .7-4.6-2.8-2.8-4.3m-.2 15.8c.9.2 3.3 1.1 2.2 1.7-1.5.5-4 0-5-1-.7-1 2-.9 2.8-.7m-2.5 29.8c.9-1.1 1.8-.2 1.7.8 0 .8-.5 1.8-1 2.2h-.2c-1.4.3-1.4-2.4-.6-3m-.4 30.6c-1 .6-2.3.3-3-.7q-.5-.7.1-1.1t1.6-.3c1 .4 2.3 1.5 1.5 2.1m-1.8-10.6v.2c-.9 1.3-4.5 2.7-4.2 0q0-.5.3-.9 1-1.3 2.9-1c.7.4 1.5 1 1 1.7M97 297.6c.3-1 1.2-2 1.6-1 .4.7.3 2-.4 2.6H98c-1 .6-1.3-1-1.1-1.6m-4.2-18.4a2.4 2.4 0 0 1 2.7 3.5v.2c-.8 1.4-3 2.2-4.6 1.5-2.5-1.2-.2-4.9 2-5.2m-6-11.3q0-.4.4-.9 1.2-1.2 2.7-.7 1 .5.6 1.5v.1c-.9 1.3-4.3 3-3.7 0m-.7 19.7c.9-.2 3.6 1 2.4 2l-.1.1c-1 .7-5.2-2.2-2.3-2.1m-.6 31.8q1.4.6.8 1.2h-.1q-1 .6-2.2.2c-.8-.2-1.8-1.2-.6-1.6q1-.4 2 .2m-5.6-56.1c.7-.5 2-.5 2.7 0q1.1.6.6 1l-.1.1c-.8.5-2.3.5-3.1-.2q-.7-.4-.1-1m-1 5c1.2.1 2.2.8 1.9 1.3-1 1-3.2.6-4-.2l-.2-.1c-.3-.5.9-1.1 2.2-1m-3.1 58q.6-1.3 1.1-.7c.6 1 .6 2.5-.1 3.3h-.2c-1.2.7-1.3-1.8-.8-2.6m-3 9.4c.3-1.3 1.8-1.5 2.5-.4 1 1.4.3 4-.9 4.9-1.2.3-2-3.4-1.6-4.5m.3 10.1q-1.4.6-2.3-.5c-.8-.9-.6-2.8.7-2.7 1 .3 2.4 2.3 1.6 3.2m-2.9-75c1.9-.4 2.7 2.6 1.4 3.7-1.3.6-3.7-3.5-1.4-3.7m-5.7-6.7a3 3 0 0 1 1.7-.2c1.1.3 2.2 1.2 1.4 1.6l-.2.1a3 3 0 0 1-3-.6q-.5-.5.1-.9m-.2 23.6h2.2c1.6.5 3 1.3 2.3 1.8h-.2c-.7.3-2.3.2-3.2-.1-.8-.3-3.1-1.3-1.1-1.7m.2 24.8v.2c-.7 1.2-2.5 1.7-3.8 1-1-.5-2-2-1.5-2.9 1.1-1.5 6-.4 5.4 1.7M56 245c.7-.6 1.9-.5 2.7 0q1.1.6.6 1l-.1.1c-.9.5-2.4.5-3.2-.2q-.5-.4 0-1m-.6 83.5H55c-.8.6-2.3.5-3-.2q-.6-.4-.2-1c.8-.4 2-.4 2.7 0q1.1.7.6 1.2m-2-18.3q.6-1.3 1-.7c.6 1 .7 2.5-.1 3.3h-.1c-1.2.7-1.4-1.9-.9-2.6m-2.5-29.5c.3-1 1.2-1.9 1.6-1s.2 2-.4 2.6l-.2.1c-.8.6-1.2-1-1-1.7m-.2 41.4c.2-1.1 1.1-2 1.7-1.3.8 1 .7 2.6-.2 3.3l-.1.1c-1 .6-1.5-1.4-1.4-2.1m-1 45v.2c-.7 1-1.6 2-2.6 1.8q-1.4-.3-1-1.8c.2-1.4 2.2-3.8 3.3-3.4 1.5.4 1 2 .4 3.2m-.1-29.1c-3.2 5.6-12.2 3-9.2-3.7 1.8-3.5 10 .2 9.2 3.7M46 314.5v.1c-.4 1.4-6.6 2.9-5.7.4.2-1.5 6-2.6 5.7-.5m-5.6-14q.3 1-.1 1.5h-.2c-2 1.1-4.5-1.7-5.5-3.5-.3-.7-1-1.4-.7-2 .5-.7 2.9-1 4.4.7q1.5 1.6 2 3.4m-6-67.8a3 3 0 0 1 1.6-.2c1.2.2 2.2 1.1 1.5 1.6h-.2a3 3 0 0 1-3-.5q-.6-.6 0-1m-.8 44.9c1 .7 2 2.4.8 3.3h-.1c-1 .4-2.2-.6-3-1.4q-1-.9-1.6-2c-.2-.9 2.4-1 3.9 0M27 297c3.1-1.2 8.5 4.2 4.3 6.6H31c-5.5 2.8-8.4-3.1-4.1-6.7m-1-3.5c-.8 1.8-4 2.5-4.9.3-.6-1.4-.5-3.5.6-4 2-1.1 4.5 1.7 4.4 3.6zm-2.7-16c.2-1 1-2 1.4-1.7.8.9.5 2.7-.3 3.4v.1c-1 .6-1.2-1.2-1-1.9m-3-60.3c1.9-.2 3.3 2.6 1.9 3.8H22c-1.2.6-2.8-1.8-2.8-2.9q0-.8 1-.9m-5 62c.5-1 1.7-1.5 2.6-1q1.3.4 1 1.6l-.1.1c-1.2 2-4.7 2.5-3.5-.7m.9 37.5a4 4 0 0 1-1.2 2.6h.1q-.7.3-1-1.1-.3-1.6.6-2.6c.8-1 1.7.1 1.7 1.1m-5.3-65a3 3 0 0 1 1.7-.1c1.1.3 2.2 1.1 1.4 1.6H14a3 3 0 0 1-3-.5q-.6-.5 0-1m-1.5 52.4c2.2 0 4.8 2.4 4 4.7v.1c-1.4 3.2-4.6 1.2-5-1.7-.4-1.2.2-3 1-3m-1.8 23.2-.1.1c-1 .6-1.2-1.2-1-1.9.2-1 1-1.9 1.3-1.6.9.9.6 2.7-.2 3.4m-2.3-182c.2-1 1-1.8 1.4-1.5.9.8.6 2.6-.3 3.4-1 .6-1.2-1.1-1-1.9M2.4 276a3 3 0 0 1 1.7-.2c1.2.3 2.2 1.2 1.5 1.7h-.2c-.9.5-2.2.2-3-.5q-.6-.6 0-1m0 37q-1 .4-2.3-.2v-4c1.8.6 3.8 2.6 2.4 4.1m-.7-109.4h-.2a2 2 0 0 1-1.5.1v-1.8h.5c1 .3 2 1.2 1.2 1.7"/><path fill="#0a0908" d="m0 0 404.8 202.3V0zm0 399.8c1.5 1.2 3 1.9 3.7 1.1q.4-1.1.3-2.4c-.2-3 .4-7.6-1.8-10.3a3 3 0 0 0-2.2-1.3zm64.5-45.1.1-.1c1.6-2.2 1.3-6.9-1.5-8.1-2.5-1.3-7.3 2-7.2 4.5 1 2.9 6 6.3 8.6 3.7m-24.2-20.5c-3 6.8 6 9.3 9.1 3.8v-.2c.8-3.4-7.3-7-9-3.7M0 335.6c2.4-.5 5.3-2.9 6.8-4.7 1-1.5-.1-3.2-1.5-4-2.2-.8-4 .8-5.3 2.8zM27 297c-4.3 3.6-1.4 9.5 4.1 6.8l.2-.1c4.2-2.4-1.2-7.8-4.3-6.6m12.5 58.4h.2c1.7-1.3 1.8-4.6.6-6.2-.8-1.3-3-1.3-4.7-.1-4.8 3.2 0 7.7 4 6.3m-26.8-21c-.7 1.4 2 4.1 3.6 4.6 2 .8 5.5-.3 5.4-2.8v-.1c-.6-2.7-7.2-3.4-9-1.7M0 384.3q2.3.2 3.6-.6c.4-1.4-1.6-2.9-3.6-4zm18.4-31.6-.2-2.7v-.2c-.3-2-1-4.4-1.6-6.2q-.4-1.9-1.7-2c-2.4.7-3.1 4-2.4 6.2.9 3 3.5 5.8 5.5 5.7q.5-.2.4-.8m36 11.6c-.8 1.3-.3 9.4 2.2 8.2 1.3-1.8 1.3-5.6.6-7.7-.5-2-2-2.2-2.8-.5m18-3.9c1.9.6 5.2.3 6.4-1.3v-.1c1.3-4-5.3-5.6-7-2-.6 1.2-.7 3 .6 3.4m20.4-81.2c-2.1.3-4.4 4-1.9 5.2 1.5.7 3.8 0 4.6-1.5v-.2c1-1.8-.6-3.9-2.7-3.5m-71.1 10.6c-1.1.6-1.2 2.7-.6 4.1.9 2.2 4.2 1.5 5-.2v-.2c.1-1.9-2.4-4.7-4.4-3.7M241 261.4q-.7 1.1.5 2c2.3 1.1 6.4-.8 7.2-3.3v-.1c0-1.4-2.2-1.2-3.5-1-1.7.2-3.6.8-4.3 2.4M38.5 297.2c-1.5-1.7-4-1.4-4.3-.8-.3.8.3 1.3.7 2 .9 1.8 3.4 4.7 5.5 3.7q.6-.6.2-1.5-.7-1.9-2-3.4M93 316.4c2-1.5-3.8-8.7-4.5-4.9-.4 2.3 1.9 5.7 4.4 5m78.4-11.7c1 2.8 3.8.5 4.2-1.5l.1-.3c.2-1.2.6-3-.1-4-2.2-.5-4.8 3.4-4.1 5.8m-163 2.5c.4 3 3.6 5 5 1.8v-.2c.8-2.3-1.8-4.7-4-4.6-.8 0-1.4 1.9-1 3m67.9 38c-2.2.3-3.7 2.4-2.5 4.3s4.1.4 5-1.3l.2-.2c1-2.2-.3-3.3-2.7-2.8m168.8-117.8c-.5 2.3 6.1 5.3 7.6 2.4v-.1c.5-2.4-6-3.7-7.5-2.3m-48.5 68.9c1.5 1.6 5 2.3 6.8 1.2l.1-.1c1.9-2-1.5-3.9-3.3-3.6-1.7.1-4 1.4-3.6 2.5M83.8 358.5l.1.1c1.3 1 3.6.7 4.5-.8 1-1.5 0-4.1-.8-4.3-1.7-.4-5.2 3.5-3.8 5m-27.3-3c-.7 2.1 2.2 6.1 4.2 6.5 1.3-2-.8-5.2-2.5-6.3-.5-.4-1.4-1-1.7-.2M0 312.7q1.3.7 2.3.2h.1c1.5-1.5-.5-3.6-2.4-4.2zm357.8-114.8c-.9 3 4 5 5.2 1.9l.1-.2c1.7-3.7-4.4-5.6-5.3-1.8M0 352q.4.2 1 0v-.2c1.3-.9 2.3-5.4-.2-5.1q-.4 0-.8.3zm46 15.2q-.4 1.5 1 1.9c1 0 2-1 2.5-1.9l.1-.2c.6-1.1 1.2-2.7-.3-3.2-1.2-.4-3 2-3.3 3.4m75.5-29.2c-1 .7-1.7 3.2-1.2 4.4.5 1.7 2.6 1 3.3-.2v-.1c.7-1.3.2-3-.8-4q-.7-.5-1.3 0M0 363.3c.6 1.4 1 2.5 1.9 2.4 2.6-.5 1.9-4.1.6-5.8l-.2-.2q-1.4-1.8-2.3-2zM212 260c1.2.9 3.1 1 4.4.3l.2-.2c1.1-.7 1.1-2.5-.3-2.7-1.2-.4-6 1.2-4.2 2.5M59 310.7c-.6.9.4 2.4 1.4 2.9 1.3.7 3 .3 3.8-1v-.2c.6-2-4.2-3.1-5.3-1.7m73.4-5 .2-.2c1.2-.8 1.7-2.6 1.3-4-.5-2.3-4 2-4 3-.3 1.6 1.4 1.9 2.5 1.2m41.5 7.6c-1.9 1.4.5 4.2 2.3 2.7l.1-.2c1.8-1.4-.7-4.2-2.4-2.5m179-98.5a6 6 0 0 0 3.4-1l.1-.1q.4-.4-.2-1c-1.2-1.1-3.6-1.4-4.9-.2-1.1 1.1-.2 2.2 1.6 2.3m-120.9 50.7a3 3 0 0 0 2-1v-.2c1.2-1.8-1.7-3.3-3-1.8-1 1-.5 3.1 1 3M21 365.2q-1 .5-.3 1.8c.8 1.5 3.3 2.2 4.7 1.4q.5-.3.2-.7c-.5-1-3-3.1-4.6-2.5M94.6 329c-.3 2.7 3.3 1.3 4.1 0l.1-.1c.4-.8-.3-1.4-1-1.7-1-.4-2.3 0-3 1zm-21.8 6.7c-.5 1 .4 4.8 1.5 4.5h.1c1.2-1 1.8-3.5.9-4.9-.7-1.1-2.2-.9-2.5.4M64 369.6q.4.8.8.6h.1c1.4-1.4 1.3-4.5-.5-5.6q-2.2-.9-1.8 2c.3 1 .9 2.3 1.4 3m-37.4-15q-.2 1.4 0 2.4t.7.6v-.1c1-1.3 1.8-4.3.9-5.8-.4-.3-1.3 1.2-1.6 2.9m7.2-77c-1.5-1.1-4.1-1-3.9 0q.6 1 1.6 2c.8.7 2 1.7 3 1.4 1.2-1 .2-2.7-.7-3.4m-2.3 96.2c1.2.6 2.8-.4 3.4-1.3v-.2c.5-.8-.4-1.4-1.1-1.7q-1.6-.5-2.6.6c-.8.8-.4 2.3.3 2.6m-8.7 10c1-.5-.8-1.4-2.5-1.8q-1.5-.3-2.4-.1c-2 .3.4 1.4 1.2 1.6 1 .5 2.7.6 3.6.3zM0 342.4l.8-.3c.9-1 1.5-3.7 1-5q0-1-.7-.5t-1 1.7zM40.5 315c-1 2.4 5.3 1 5.7-.4v-.1c.2-2.2-5.5-1-5.7.4M28 327.3c-1.3 3.2 2.2 2.7 3.4.7l.1-.1q.3-1.2-.9-1.7c-1-.4-2.2.2-2.7 1zm39.5 4.6c-1-.3-3 1.2-3 2 0 1.4 2 1.9 2.9 1.2l.2-.2c1-.6 1.2-2.7-.1-3M18 278.2c-1-.4-2.2.2-2.7 1-1.2 3.2 2.3 2.8 3.5.8v-.2c.4-.8-.2-1.3-.9-1.6M7 341c1-.7 1.3-2.8-.1-3.2-1-.2-3 1.2-3 2.1 0 1.3 2 1.8 2.9 1.1zm58-51.6c1 .3 2.5.4 3.3 0h.2c.8-.4-.7-1.2-2.3-1.7H64c-2 .4.3 1.4 1 1.6m-46.6 87.6c-1.2 3.2 2.3 2.8 3.5.8v-.2q.4-1.2-.8-1.6c-1-.5-2.2.2-2.7 1m7.4-36.5c0 1.3 1.8 1.8 2.8 1.1l.2-.1c1-.7 1.2-2.8-.1-3.1-1-.2-3 1.2-3 2.1M71.1 368c1-1-.7-3.6-1.6-4.2q-.8-.4-1.3.7c-.7 1.4 1 4.4 2.8 3.5m18.5-48.1c-2 .6.6 4.6 2.1 3.8h.1c1.7-1.4-.3-4.4-2.2-3.8m44-28c-1 1.5 1.2 4 2.8 3h.1c1.1-1.2-1.8-5.4-3-3M26.2 310c-.9-.2-2.9 1-3 2-.2 1.2 1.7 2 2.8 1.4l.1-.1c1.2-.6 1.3-2.8 0-3.3m63.8-43.7q-1.6-.5-2.7.7l-.4 1c-.6 2.9 2.8 1.2 3.6 0l.1-.2q.5-1-.6-1.5m223.5-41.2q.3 1.1.8.6c1-1.2 1.5-3.5.7-4.8-.3-.5-1.1.7-1.5 2zm42.9-31.1v-.2c.2-1.4-2-1.6-3-.8-1.2.6-1.4 3 .1 3 1-.2 2.4-1 2.9-2M2.8 321c-2.7 0-.2 4.4 1.4 3.8v-.1c1.8-1.1.7-4-1.3-3.7m164.3-45c-1.2.3-1.3 2-.7 3l.1.1c.7 1 3 1 3-.4.2-1-1.5-3.1-2.4-2.8M20.4 217.3q-1 .1-1.1 1c0 1 1.6 3.4 2.8 2.9 1.5-1.3 0-4.1-1.7-3.9m174.1 86.4c1.2-1-2.9-2-3.7-1.7q-1.9.2-1.4.8a6 6 0 0 0 5 1m-93.9-24a6 6 0 0 0 5 1.1h.1c1-.7-1.4-1.6-2.2-1.8s-3.5-.3-3 .7zm-40.9 54.1c1.2-1-1-4-2.2-3.7-2.2 1 .1 4.9 2.1 3.8m-37.2.2c1.3 1.1 4 1.8 5.6 1.2q.3 0 .3-.4c-.7-1.5-6.6-2-6-.9m57.3-42.2c.8-.6 1.3-2.1.5-2.9s-4 1.3-3.5 2.3 1.9 1.6 2.8.8zm64.1-1.3c1.4-1.5-1.2-5.1-2.9-3.5-.6 1 1.9 4.2 2.9 3.6M70.3 340c.9-.8-.8-3.3-1.7-3.7q-.7-.1-1.3.8c-1 1.6 1.2 3.8 2.9 3zm-.6-69c-2.3.1.1 4.3 1.3 3.8l.1-.1c1.3-1.1.5-4-1.4-3.8M0 372.4h2.3q1.5 0 2.8-.5c2-.4 2.9-.4 2.8-1.2q-.6-1.7-2.7-2h-.1q-2.3-.6-5 0zm127.7-123c-1.2 1-.3 3.5 1.3 2.5l.2-.1c.9-.6 1-1.9.6-2.8-.4-1-1.4-.3-2 .4m6 68.8.1-.1c.9-1 1.3-3.1 1.2-4.4 0-.6-.2-1.5-.9-.7q-.5.8-.8 2c-.4 1.8 0 3.5.4 3.2M204 285c-.8-1-3.7 1-3.4 2v.2c1.4 1.6 4.8-.3 3.4-2.2m-48.4-23c-.3 1.1 1.6 3.6 2.7 3.1h.1c.8-.7.9-2.2.3-3-.6-1-2.8-1.1-3.1 0m-49.2 5.3c.8-1.4-1-4.8-2.8-4.3-1.8 1.5 1.8 5 2.7 4.3M269 210.9c.7-.8-.7-3.7-1.8-3.2-1 .5-1.5 2-.7 3 .7.9 2 1 2.5.2M52 324.1c1-.8 1-2.5.3-3.4-.6-.6-1.5.2-1.7 1.3-.2.7.3 2.7 1.3 2.1M0 326.9q.9-.6.4-1.2l-.4-.3zm25 45.4v-.2c.8-1.2-.4-1.3-1.3-1.2-1.3 0-4 3-2 3.3 1.3.1 2.7-1 3.3-1.9M105.5 222q-1.1-.1-1.9.2-.6.3.1 1c.9.6 2.4.9 3.4.5h.1c.8-.6-.4-1.4-1.7-1.7m-91.6 96.3q.3 1.4 1 1.1c.7-.5 1.3-1.7 1.2-2.6 0-1-.8-2-1.6-1q-.9 1-.6 2.5m150.3-50.5c-.9.8-.4 3.9 1 3l.2-.1c.9-.8.7-2.4 0-3.2q-.5-.7-1.2.3M22.3 326c0 .4.4 1.3 1 1l.1-.2c.8-.7 1.3-3 .3-3.9-.6-.2-1.7 1.7-1.4 3m81.3-9.9c-.7 1.4 3.5 5.7 4.7 5.4.8-1.2.4-3.6-.2-5l-.2-.1a2.5 2.5 0 0 0-4.3-.4m-4.5 21.4a2 2 0 0 0-1.5.3q-.7.5-.1 1.1c.6 1 2 1.3 3 .8v-.1c.9-.6-.3-1.7-1.4-2m-69.1 28c.5-.4.2-.8 0-1.2q-1.1-1.2-2.6-.8c-2.4 1.1 1.2 3 2.5 2m3.3-55.6c.2.6.6 1.5 1.3 1.1l.2-.1c.8-.8 1.2-2.7.1-3.5-.7-.4-2 1.2-1.6 2.5m-3.2 4.5.1-.1c.8-.8.9-2.3.5-3.3q-.1-.7-.7-.5c-.7.6-1 1.9-1 3q.3 1.5 1.1.9m169.6-81.6c-1.3-.1-1.6 1.8-.7 2.7q1 1 2.2.5c.8-1-.6-3-1.5-3.2M148 310.4c.2.7.9 1.3 1.5.7l.2-.1c.9-.8.8-2.4 0-3.3-1-.5-2 1.7-1.6 2.6m-18.4-38.9v.1c.7 1 3.7 1.5 4.2.4.2-1.4-4.5-2.4-4.2-.5m-58.2 71.2c-1.3 0-1.6 1.8-.7 2.7.5.7 1.5 1 2.2.6v-.1c.8-.9-.6-3-1.5-3.2m41.5-43c-.2 1 1.3 3 2.4 2.4h.1c2-2-1.3-4.7-2.5-2.4"/><path fill="#0a0908" d="M358.7 225q-1-.2-1.7.1t0 1h.2l-73.3 36.7c0-.5-.9-1-1.7-1.2q-1-.1-1.6.2t0 .9 2 .7l-35.8 17.9q-.4-.6-.8-.8-.6-.4-.9.5-.2.5-.2 1.2l-3.2 1.6-1 .2q-.4.3-.4.5L195.5 307l-.2-.2q-.7-.5-1.2 1l-33.5 16.7q-.5-.6-1.3-.8-.8-.1-1.4.2t-.2.8 1 .7l-52.6 26.3-.3-.5c-.4-.5-.9 0-1.4.6l-.4 1L81.5 364l-1 .1-.3.6-17.6 8.8c.4-1.2.4-2.5-.5-3s-3.2 1.8-3.3 3.3q0 .8.4 1.4l-5.3 2.7-1.6-2c-1.3-1.7-2.8-1.6-2.7 1.3q.2 1.2 1.1 2.3l-4.2 2.1q-.7-.6-1.5-1c-1.6-.7-1.9-.6-1.8 1.2l.2 1.3-2.8 1.4q-.2-1-1-1h-.2q-1 .9-1 2.1l-5.8 2.9-1.3-.5q-1.3-.2-2.2 0c-2 .4.3 1.4 1 1.6h.2l-7.3 3.7c-.2-.7-1.9-1.4-2.6-1.1q-1.6.1-.6 1 .6.6 1.7.9l-3 1.5q-.9 0-1.4.2t-.3.6l-3.6 1.7-1.4-1.2-5.1-4.4c-3-2.6-2.2 3.2-1.1 4.8a9 9 0 0 0 2.7 3.3l-8.3 4h404.7V202.3l-45.5 22.8-.6-.2m-249.3 82.5c.7.7 2 1 3 .6l.1-.1c.8-.5-.3-1.4-1.4-1.7q-1 0-1.6.2-.8.4 0 1m240.2-85.6q-.7.3 0 .9c.7.7 2 1 3 .6l.1-.1c.8-.5-.3-1.4-1.4-1.6q-1-.1-1.7.2M5.4 145.2c0 .8 0 2.5 1 2l.1-.1c.9-.8 1.2-2.6.3-3.4-.4-.3-1.1.6-1.4 1.5m190.2 72.2c-.1.7 0 2.4 1 2l.1-.2c.8-.8 1.1-2.6.3-3.4-.4-.3-1.2.6-1.4 1.6"/><path fill="#0a0908" d="M109.3 347.3c0 .7 0 2.4 1 1.9l.1-.1c.9-.8 1.2-2.6.3-3.4-.4-.3-1.1.6-1.4 1.6M179 311l.1-.1c.8-.8 1.1-2.6.3-3.4-.4-.3-1.1.6-1.4 1.6-.1.7 0 2.4 1 1.9m164.8-118.7q-1.2-.8-2.5 0-.7.6.2 1.5c.7.6 2 .6 2.9 0h.1c.5-.6-.2-1.1-.7-1.5m-17.1 25.1q-.7.3 0 .9c.7.7 2 1 2.9.6l.1-.1c.8-.5-.3-1.4-1.4-1.6q-1-.1-1.6.2M58.4 258l.1-.2c.8-.8 1.1-2.6.3-3.4-.4-.3-1.1.6-1.4 1.6-.1.7 0 2.4 1 2m-23 110.4c.8-.7 1.1-2.5.2-3.4-.4-.3-1 .6-1.3 1.6-.1.7 0 2.5 1 2zm-5.2 16.8.1-.1c.8-.8 1.1-2.6.3-3.5-.5-.2-1.2.7-1.4 1.6-.1.7 0 2.5 1 2m210.5-145.4c0 .7 0 2.5 1 2l.1-.1c.9-.8 1.2-2.6.3-3.5-.4-.2-1.1.7-1.4 1.6M37.6 305.5h.2c.8-.5-.3-1.4-1.5-1.7q-.9-.1-1.6.2-.6.4 0 1c.7.6 2 1 3 .5m-17.4 82.2c-.2.7 0 2.5 1 2v-.2c.9-.7 1.2-2.5.3-3.4-.4-.3-1.1.6-1.3 1.6m46.9-122.2c.8-.5-.3-1.4-1.4-1.7q-1 0-1.6.2-.7.4 0 1c.7.6 2 1 2.9.5m162.5-7.8q-1-.1-1.7.2t0 1q1.4 1 3 .5h.1c.8-.5-.3-1.4-1.4-1.7M68.1 348q-.6.3 0 .9c.7.7 2 1 3 .6l.1-.1c.8-.5-.3-1.4-1.4-1.6q-1-.1-1.7.2m156.2-149v-.2c.9-.7 1.2-2.5.3-3.4-.4-.3-1 .7-1.3 1.6-.1.7 0 2.5 1 2m-89 125.2c.8-.5-.3-1.4-1.4-1.7q-1 0-1.6.2-.7.4 0 1c.7.6 2 1 3 .5m33-36.9c-.1.7 0 2.4 1 1.9l.1-.1c.8-.8 1.1-2.6.3-3.4-.4-.3-1.2.6-1.4 1.6M14.2 364.5c.8-.9 1.1-2.7.3-3.5-.4-.3-1.2.6-1.4 1.6-.1.7 0 2.4 1 2M204.7 302l.2-.2c.8-.4-.3-1.3-1.5-1.6q-.9-.1-1.6.2t0 1c.7.6 2 1 3 .5M36.2 232.5q-1-.1-1.6.2t0 .9c.7.7 2 1 3 .6v-.1c.9-.5-.2-1.4-1.4-1.6m110 56.7c-.2.7 0 2.4 1 2v-.2c.9-.8 1.2-2.6.3-3.4-.4-.3-1.1.6-1.3 1.6m1.4-7.8c0 .7.1 2.5 1 2l.2-.2c.8-.8 1-2.5.2-3.4-.4-.3-1.1.6-1.4 1.6m18-93.6c-.1.8 0 2.5 1 2l.1-.1c.8-.8 1.1-2.6.3-3.4-.4-.3-1.2.6-1.4 1.5m43.7 79.6c.9-.8 1.2-2.6.3-3.5-.4-.2-1.1.7-1.3 1.6-.2.8 0 2.5 1 2m-185 12h.1c.8-.8 1.1-2.6.3-3.5-.4-.3-1.2.7-1.4 1.6-.1.7 0 2.5 1 2m-16.8 68c.9-.9 1.2-2.7.3-3.5-.4-.3-1.1.6-1.3 1.6-.2.7 0 2.4 1 2m-1-22c-.2.8 0 2.5 1 2v-.1c.9-.8 1.2-2.6.3-3.5-.4-.2-1.1.7-1.3 1.6m80.3 1.2c.8-.5-.3-1.4-1.4-1.7q-1-.1-1.6.2-.8.4 0 1c.7.6 2 1 2.9.5m-74.2-75.1q-1-.1-1.7.2t0 1c.7.6 2 1 3 .5s-.2-1.4-1.4-1.7m183.7 35.7q-.6.4 0 1c.7.6 2 1 3 .5h.1c.8-.5-.3-1.4-1.4-1.7q-1 0-1.6.2M2.5 276q-.7.3 0 .9c.7.7 2 1 3 .6v-.1c.9-.5-.2-1.4-1.3-1.7q-1 0-1.7.2m106.7 10c-.1.7 0 2.5 1 2l.1-.2c.8-.7 1.1-2.5.3-3.4-.4-.3-1.2.6-1.4 1.6m96.4-82.5c.9-.9 1.4-2.7.8-3.8-.3-.7-1.2.3-1.6 1.5-.2.6-.3 2.7.7 2.3m-104 108.5a3 3 0 0 0 1.1-2.3c.1-1-.8-1.9-1.7-.8-.9.6-.9 3.3.5 3m-24.8-42.5v.2c.9.8 3.2 1 4.1.1.4-.5-.7-1.2-2-1.3-1.3 0-2.5.5-2.1 1m36.8-83.3c-.8-.4-2-.5-2.7-.3s-.5.9 0 1.2q1.7 1 3.4.3h.1q.6-.6-.8-1.2m5.4 29.7c-.5.8-.3 3.3.9 2.7v-.1c.8-.8.8-2.4.3-3.3q-.5-.6-1.2.7m211.6-32c.8-.8.7-2.4.2-3.3q-.6-.6-1.1.7c-.6.8-.4 3.3.8 2.7m32 7.8.2-.1c.7-.5-.2-1.4-1.2-1.6q-.8-.1-1.4.2t-.2.9c.6.7 1.8 1 2.6.6m-38.7 6.4h.1q.4-.5-.6-1.3-1.4-.8-2.6-.3-.5.5 0 1c.7.7 2.2 1 3 .6m43.5-9.6.2-.1c.6-.6.8-1.8.4-2.6-.5-1-1.4 0-1.6 1-.2.7.2 2.3 1 1.7M56.8 344.8c.6.7 1.8 1 2.6.6h.2c.7-.6-.2-1.4-1.2-1.7q-.8 0-1.4.2-.6.4-.2.9m1.8-99.9c-.8-.5-2-.6-2.7 0q-.5.4 0 1c.8.6 2.4.6 3.2.2l.1-.1q.4-.5-.6-1.1m-6.7 37.4c.8-.7 1-1.9.5-2.7s-1.3 0-1.6 1c-.1.7.2 2.3 1 1.7M67.2 314c-2.8.7 1.4 2.3 2.3 1.5l.2-.1c1-1-1.5-1.9-2.5-1.5m-13.1-1.1.1-.1c.8-.8.7-2.4.2-3.3q-.5-.6-1.2.7c-.5.8-.3 3.3 1 2.7zm83.6-60.3q-.8 1-.5 2.4 0 1 .7.7h.2q.9-1 1-2.2c0-1-.5-2-1.4-.9M52 328.2c.8.7 2.3.8 3.1.3h.2q.4-.6-.6-1.2-1.5-.7-2.8 0-.4.5.1 1m-24.4 50.5q.5-.6-1-1.6c-.9-.6-2-.6-2.3-.2-.7 1.2 2.5 2.3 3.2 1.8m-3.4-30.1c2 0 4.4-.3 5.8-1.8 1.1-1.5-3.5-.9-4.6-.6H25q-1.5.4-2.4 1.2c-1.2 1 .3 1.1 1.5 1.2m215.1-71.9.2-.1c1.2-1-1.5-2-2.4-1.7-2.8.6 1.2 2.6 2.2 1.8M82.6 263.3c-.8-.5-2-.5-2.7 0q-.4.4.1 1c.8.6 2.3.6 3.1.2l.2-.1q.4-.5-.6-1zm168.2-47.6c.8-.6-.1-1.4-1.2-1.7l-1.4.2q-.6.4-.1.9c.5.7 1.8 1 2.6.6M25 319a3 3 0 0 0 .6-3.1q-.3-.7-.9-.4-1.1 1.1-.6 2.8.3 1 .9.7m-12.4 61.6q-1.4-.8-2.8 0-.4.4.1.9c.8.7 2.3.7 3.2.3l.1-.1q.5-.5-.6-1.1m231.2-113.9q-.4.4 0 1a3 3 0 0 0 3.1.6l.1-.1q.5-.4-.5-1.2c-.8-.6-2-.8-2.7-.3m-168 59.6c-.5.8-.3 3.3.9 2.7v-.1c.8-.8.8-2.4.3-3.3q-.5-.6-1.2.7m174.7-62.6c-.8.6-.9 1.9-.6 2.8q.3 1 .8.8l.1-.1a3 3 0 0 0 .6-3q-.3-.9-.9-.5M204 276.5q-.8 0-1.4.2-.6.4-.2 1c.6.6 1.8 1 2.6.5h.1c.8-.5-.1-1.4-1.1-1.7m8-59.6q-1.2 1.1-.7 2.8.3 1 .9.7a3 3 0 0 0 .6-3.1q-.2-.7-.8-.4m82.6-22.5.1-.1c.7-.6.9-1.9.4-2.7s-1.3 0-1.5 1c-.2.8.2 2.3 1 1.8M128.5 319.3c-.1.7.2 2.3 1 1.7l.2-.1c.7-.6.8-1.8.4-2.6-.4-1-1.3 0-1.6 1M159.7 216c.7-.7.8-2 .4-2.7-.4-1-1.3 0-1.6 1-.1.7.2 2.3 1 1.7M1.7 203.5c.7-.5-.2-1.4-1.2-1.7H.1v1.8q.8.3 1.5 0zM138 222.4q-1.4-.8-2.6-.3-.5.5 0 1a3 3 0 0 0 3 .6h.2q.4-.5-.6-1.3m-40 76.9.2-.1c.7-.6.8-1.9.4-2.7s-1.4 0-1.6 1c-.2.8.2 2.3 1 1.8m219.5-98.8q.6-.6-.5-1.1c-.8-.5-2-.6-2.7 0q-.5.4 0 1c.8.6 2.4.6 3.2.2M69.7 356.9l.1-.1c.6-.3-.5-1-1.8-1.3-1.2-.2-2.4 0-2.1.5.8.9 2.7 1.2 3.8.9M187.5 307l.1-.1c.6-.4 1.1-1.4 1-2.2.2-1-.5-1.9-1.3-.9q-.8 1.2-.5 2.4 0 1 .7.8M275 193a3 3 0 0 0 .5-3.1q-.2-.7-.8-.5c-.8.7-1 2-.6 2.8q.2 1 .8.8m-54.2 27c1-1.1-1.5-2-2.4-2-2.7.1 1.4 2.8 2.3 2m123.1-17.4c-1 .6.4 2 1.2 2q.8 0 1.3-.3h.1q.4-.4.1-.8c-.6-.8-1.8-1.5-2.7-1M88.4 289.7c1.2-1-1.5-2.3-2.4-2.2-2.9 0 1.3 2.9 2.3 2.2m9.2 44c-.4-.6-1.4 0-1.7 1-.1.6 0 2.3.8 2l.1-.2c.8-.6 1.3-2 .8-2.8m-14.2-14.5c-1.2.4-.2 1.4.6 1.6q1.1.4 2.2-.1l.1-.1q.6-.6-.8-1.2-1.2-.6-2.1-.2m119.8-131.8c-1.1-.1-2.2.2-1.8.6.8.8 2.4 1.2 3.3.8h.1c.7-.5-.5-1-1.6-1.4M5.4 308.4c-.5-.8-1.7-1.2-2.5-.9-1.9.6 1.3 2.4 2.1 1.8h.2q.4-.4.2-1m119.9-5.8.1-.1q.6-.6 0-1.1c-.6-.9-4-.4-2.6.8q1.2 1 2.5.4"/><path fill="#f30004" d="M487.5 66.7q.4.2.8.7H512V50.9q-.6-.3-.8-.8-.6-1 .2-1.3h.6V0h-31.1v.2c.1 1-1.5.5-2.1 0l-.3-.2h-33.9v67.3H486c-.4-1 .6-1 1.4-.6m16.2-14c1-.2 2.3.5 2.6 1.4v.2c0 1.1-3 1.8-4 1.1-.8-.7.2-2.7 1.4-2.7m-9.4-49.5c.6-.8 3-1.2 3.6-.2v.1q0 1.5-1.4 1.8c-1.2.4-2.8-.6-2.2-1.7m-35.8 54q-.6.2-1-.3 0-1.6 1.5-2.3 1.2-.7 1.3 0v.1a3 3 0 0 1-1.8 2.5m1.8-24.7c-.8-.7-1.2-2-.2-2s2 .7 2.2 1.6v.1c.2 1-1.4.7-2 .3"/><path fill="#0a0908" d="M506.3 54.3V54c-.3-1-1.6-1.6-2.6-1.4-1.2 0-2.2 2-1.4 2.7s4 0 4-1.1m4.9-4.2q.1.6.8 1v-2.2h-.6q-.9.3-.2 1.3M496.5 5q1.4-.4 1.4-1.9c-.5-1.1-3-.7-3.6 0-.6 1.2 1 2.2 2.1 1.8M481 .2l-.1-.1h-2.4l.3.2c.6.4 2.2 1 2.1 0zm6.5 66.5c-.8-.5-1.8-.3-1.5.7h2.3q-.4-.5-.8-.7M460 30.6c-.9 0-.5 1.2.3 1.9.6.4 2.2.8 2-.3v-.1c-.3-.9-1.3-1.6-2.2-1.5m-1.1 24q-1.4.8-1.4 2.3 0 .5.9.3a3 3 0 0 0 1.8-2.5v-.2q-.1-.5-1.3 0"/></svg>